<svg width="162" height="11" viewBox="0 0 162 11" fill="none" xmlns="http://www.w3.org/2000/svg">
<path d="M87.4299 10.7461V0.296143H88.9748V4.4423H96.1562V0.296143H97.6593V10.7461H96.1562V5.62691H88.9748V10.7461H87.4299Z" fill="black"/>
<path d="M113.4 9.81538C114.778 9.81538 115.905 9.39231 116.782 8.63077C117.659 7.82692 118.118 6.81154 118.118 5.58462C118.118 4.35769 117.659 3.34231 116.782 2.53846C115.905 1.73462 114.736 1.35385 113.4 1.35385C112.064 1.35385 110.937 1.77692 110.018 2.53846C109.141 3.34231 108.682 4.35769 108.682 5.58462C108.682 6.81154 109.141 7.82692 110.018 8.63077C110.937 9.39231 112.022 9.81538 113.4 9.81538ZM113.4 11C111.563 11 110.06 10.45 108.891 9.43462C107.722 8.41923 107.095 7.10769 107.095 5.5C107.095 3.89231 107.722 2.58077 108.891 1.56538C110.06 0.55 111.563 0 113.4 0C115.237 0 116.74 0.55 117.951 1.56538C119.162 2.58077 119.746 3.89231 119.746 5.5C119.746 7.10769 119.12 8.37692 117.951 9.43462C116.74 10.4923 115.237 11 113.4 11Z" fill="black"/>
<path d="M129.057 10.7461V0.296143H130.477L135.362 6.68461L140.289 0.296143H141.667V10.7461H140.163V2.58076L135.362 8.79999L130.519 2.58076V10.7461H129.057Z" fill="black"/>
<path d="M151.979 10.7461V0.296143H161.541V1.52307H153.482V4.56922H158.326V5.75384H153.482V9.56153H162V10.7461H151.979Z" fill="black"/>
<path d="M0 10.7461L8.18351 1.52307H0.668041V0.296143H10.9392L2.92268 9.56153H10.8974V10.7461H0Z" fill="black"/>
<path d="M22.1706 6.72691H27.5149L24.801 2.07307L22.1706 6.72691ZM18.2458 10.7461L24.2165 0.296143H25.469L31.5232 10.7038H29.8948L28.2247 7.91153H21.4608L19.8324 10.7038L18.2458 10.7461Z" fill="black"/>
<path d="M41.502 4.94999H46.8463C47.5979 4.94999 48.1824 4.78076 48.5999 4.4846C49.0175 4.18845 49.2262 3.80768 49.2262 3.21537C49.2262 2.66537 49.0175 2.2423 48.5999 1.94614C48.1824 1.64999 47.6814 1.48076 46.9298 1.48076H41.502V4.94999ZM39.9989 10.7461V0.296143H46.9716C48.1406 0.296143 49.0592 0.549989 49.769 1.05768C50.4788 1.56537 50.7711 2.2846 50.7711 3.17307C50.7711 3.8923 50.5205 4.56922 50.0195 5.11922C49.4767 5.66922 48.8087 5.96537 47.9736 6.1346L51.0216 10.7461H49.3515L46.3035 6.17691H41.5855V10.7461H39.9989Z" fill="black"/>
<path d="M61.585 6.72684H66.9294L64.2572 2.07299L61.585 6.72684ZM57.702 10.7461L63.6726 0.338379H64.9252L70.9376 10.7461H69.3093L67.6391 7.95376H60.917L59.2886 10.7461H57.702Z" fill="black"/>
</svg>
